# xmcd CD database file
#
# Track frame offsets:
#	150
#	21261
#	33716
#	49167
#	66799
#	80005
#	90203
#	106127
#	126962
#	142786
#
# Disc length: 2075 seconds
#
# Revision: 0
# Processed by: cddbd v1.5.1PL2 Copyright (c) Steve Scherf et al.
# Submitted via: CDex 1.51
#
DISCID=7d08190a
DTITLE=Duke Pearson - How Insensitive
DYEAR=1969
DGENRE=Jazz
TTITLE0=Stella By Starlight
TTITLE1=Clara
TTITLE2=Give Me Your Love
TTITLE3=Cristo Redentor
TTITLE4=Little Song
TTITLE5=How Insensitive
TTITLE6=Sandalia Dela
TTITLE7=My Love Waits
TTITLE8=Tears
TTITLE9=Lamento
EXTD=YEAR: 1969
EXTT0=
EXTT1=
EXTT2=
EXTT3=
EXTT4=
EXTT5=
EXTT6=
EXTT7=
EXTT8=
EXTT9=
PLAYORDER=
